<?xml version="1.0" encoding="utf-8"?>
<!-- Generator: Adobe Illustrator 27.1.0, SVG Export Plug-In . SVG Version: 6.00 Build 0)  -->
<svg version="1.1" id="Layer_1" xmlns="http://www.w3.org/2000/svg" xmlns:xlink="http://www.w3.org/1999/xlink" x="0px" y="0px"
	 viewBox="0 0 1216 634" style="enable-background:new 0 0 1216 634;" xml:space="preserve">
<style type="text/css">
	.st0{fill:#322139;}
	.st1{fill:#A43563;}
	.st2{fill:#F0F8FF;}
</style>
<rect x="-3" class="st0" width="1222" height="639"/>
<g>
	<g>
		<path class="st1" d="M600.86,96.28c37.96-2.58,76.2,13.09,102.7,40.14c14.88,15.51,26.24,34.48,32.32,55.11
			c5.21,18.17,7,37.43,4.41,56.17c-2.69,20.07-10.32,39.36-21.31,56.33c-2.77,4.52-6.56,8.27-9.44,12.7
			c-2.24,2.24-4.69,4.31-6.44,6.98c-2.44,1.81-4.58,3.95-6.71,6.1c-22.61,20.14-52.28,32.08-82.51,33.41
			c-18.97,0.87-38.29-2.15-55.87-9.47c-17.42-6.53-32.62-17.71-45.94-30.49c-18.03-18.69-30.69-42.62-35.68-68.16
			c-1.89-11.7-2.76-23.59-2.03-35.43c1.59-24.13,10.51-47.44,24.23-67.26C521.86,119.49,560.46,97.91,600.86,96.28z M597.36,99.17
			c-13.97,1.21-27.86,4.37-40.8,9.86c-15,6.42-28.74,15.76-40.57,26.98c-21.46,21.04-35.55,49.5-38.77,79.46
			c-3.33,32.58,5.37,66.63,25.5,92.66c17.74,23.97,44.09,41.56,73.09,48.64c41.27,10.71,87.73-0.68,119.12-29.58
			c3.4-2.59,6.49-5.58,9.06-9.01c15.94-16.63,26.53-38,31.61-60.39c1.92-7.94,3.15-16.09,2.63-24.28
			c1.77-34-11.41-68.24-34.77-92.86c-3.23-4.73-8.22-7.73-12.33-11.59C665.5,107.19,630.92,96.39,597.36,99.17z"/>
	</g>
	<path class="st1" d="M599.03,111.75c2.12-0.49,2.13,3.33,2.45,4.39c0.59,6.29,1.82,12.53,2.09,18.85
		c-3.95,0.55-5.44-3.87-8.13-5.86c-3.22-3.39-6.39-6.89-9.91-9.98c0.01,6.14,1.63,12.12,2.31,18.17c-1.07,0.02-2.8,0.33-2.88-1.2
		c-0.83-7.18-2.17-14.29-2.94-21.46c2.71-1.81,4.45,1.45,5.97,3.27c4.6,3.83,8.31,8.4,12.64,12.47c-0.54-6.03-2.05-11.99-2.24-18.02
		C598.56,112.22,598.87,111.91,599.03,111.75z"/>
	<g>
		<path class="st1" d="M626.42,113.48c1.23,0.27,3.01,0.28,3.13,1.89c1.67,7.74,4.05,15.34,5.53,23.11
			c-4.66,1.89-3.04-3.92-4.24-6.27c-4.01-0.7-7.99-1.71-12.07-1.87c-2.31,1.19-1.85,6.63-5.94,4.63c0.44-2.15,2.09-3.79,3.1-5.68
			C619.53,124.08,622.99,118.79,626.42,113.48z M626.97,117.68c-1.69,2.72-3.47,5.38-5.32,7.99c-0.52,0.64-0.66,1.45-0.59,2.26
			c2.94,0.3,5.81,1.18,8.78,1.25c-0.43-3.98-2.12-7.73-2.48-11.73L626.97,117.68z"/>
	</g>
	<path class="st1" d="M649.15,119.33c1.33,0.05,2.48,0.98,3.74,1.39c4.4,2.51,9.3,4.09,13.58,6.8c0.3,0.96-0.69,1.5-1.21,2.1
		c-2.67-0.43-4.58-3.23-7.39-2.76c-2.91,5.72-5.28,11.75-8.3,17.44c-0.94-0.01-2.16,0.3-2.75-0.66c0.35-1.69,1.25-3.17,2.17-4.6
		c2.08-4.49,4.23-8.95,6.42-13.39c-0.99-1.92-3.96-2.44-5.78-3.5C647.91,122.2,648.16,119.94,649.15,119.33z"/>
	<path class="st1" d="M546.62,128.75c0.22-0.02,0.65-0.05,0.86-0.07c2.45,2.5,4.06,5.64,6.23,8.36c2.37,3.35,4.81,7.59,3.03,11.77
		c-1.76,2.98-4.7,5.54-8.15,6.35c-3.29,1.41-5.86-1.27-8.15-3.08c-3.1-3.77-5.95-7.76-8.54-11.9c-0.5-1.41,1.72-2.4,2.42-1.19
		c3.5,4.55,5.91,10.48,11.14,13.34c4.62,0.92,9.77-3.09,9.13-7.97c-1.9-4.43-4.88-8.28-7.71-12.13
		C545.9,131.28,544.25,128.99,546.62,128.75z"/>
	<path class="st1" d="M678.3,136.23c0.96-0.27,1.85,0.3,2.73,0.6c-1.26,3.43-4.18,5.81-6.28,8.7c-2.36,3.28-4.99,6.36-7.29,9.68
		c-1,0.46-3.59-0.38-2.31-1.76C669.49,147.68,673.93,141.98,678.3,136.23z"/>
	<g>
		<path class="st1" d="M599.11,148.72c22.55-2.68,45.89,4.97,62.72,20.1c18.77,16.08,28.55,41.33,27.41,65.85
			c-1.78,23.51-13.55,46.51-32.85,60.36c-24.09,18.24-58.71,21.47-85.51,7.31c-7.7-3.43-14.28-8.93-20.35-14.64
			c-16.69-16.12-25.6-39.68-24.31-62.79c1.04-15.75,6.5-31.33,16.16-43.87C555.5,162.9,576.81,150.87,599.11,148.72z M604.35,152.2
			c-8.2,0.64-16.5,1.64-24.1,4.94c-29.23,10.63-50.56,40.42-50.16,71.69c-0.67,26.34,13.41,52.41,35.75,66.28
			c27.24,18.19,66.03,15.69,90.94-5.46c21.04-16.91,32.13-45.41,27.44-72.09c-2.66-17.9-12.04-34.77-25.9-46.41
			C643.8,158.14,623.81,151.09,604.35,152.2z"/>
	</g>
	<g>
		<path class="st1" d="M690.62,152.16c5.57-1.01,10.46,4.23,11.83,9.26c1.29,8.76-9.05,16.57-17.23,13.17
			c-4.56-2.21-7.21-7.64-6.27-12.62C680.85,156.99,685.27,152.95,690.62,152.16z M691.17,154.98c-4.23,0.6-7.94,4.1-9.48,8.03
			c-0.02,2.89,0.37,6.26,3,8.02c6.5,5.82,18.45-4.21,13.9-11.56C697.58,156.46,694.21,154.56,691.17,154.98z"/>
	</g>
	<g>
		<path class="st1" d="M520.39,154.98c4.77-0.3,8.91,3.03,11.93,6.38c3.03,3.3,2.35,8.39-0.27,11.68c-1.99,2.32-3.56,5-5.55,7.32
			c-0.22-0.02-0.65-0.06-0.86-0.08c-5.17-4.39-10.73-8.29-16.15-12.37c-0.53-0.5-2.05-0.89-1.32-1.84
			C511.65,161.95,514.19,155.29,520.39,154.98z M519.24,157.88c-3.59,1.53-5.37,5.19-7.82,7.99c4.58,3.59,9.23,7.26,14.09,10.52
			c0.25-0.02,0.75-0.07,1-0.09c2.5-3.26,5.92-6.9,4.64-11.4c-0.99-2.23-2.86-3.81-4.87-5.09
			C524.18,158.47,521.9,156.85,519.24,157.88z"/>
	</g>
	<g>
		<path class="st1" d="M604.94,157.48c21.07-1.45,42.25,8.07,56.35,23.55c19.24,20.63,24.52,53.22,12.22,78.7
			c-2.2,4.14-3.74,8.72-7.1,12.13c-7.57,11.34-19.01,19.85-31.55,24.98c-7.84,3.5-16.43,4.51-24.88,5.43
			c-18.4,0.3-37.07-6.16-50.62-18.73c-13.32-11.31-21.6-28.04-23.54-45.32c-2.23-15.59,1.56-31.53,9.28-45.1
			c2.96-4.55,6.24-8.89,9.75-13.02C567.75,166.42,586.12,157.94,604.94,157.48z M572.82,175.27c-0.16,0.17-0.48,0.5-0.64,0.66
			c-0.14,35.85-0.13,71.71,0,107.56c0.16,0.15,0.47,0.47,0.62,0.62c22.1,0.23,44.22,0.03,66.33,0.09c1.6,0.88,4.24-0.44,4.07-2.32
			c-0.03-7.93,0.1-15.85-0.08-23.78c-0.16-0.15-0.47-0.47-0.62-0.62c-14.31-0.28-28.64,0.03-42.96-0.12
			c0.11-3.11-0.76-6.26-0.2-9.33c-1.42,0.01-4.24,0.03-5.66,0.04c-0.06,4.84-0.06,9.69,0,14.53c14.55,0.08,29.11-0.03,43.66,0.04
			c0.09,5.23,0.03,10.46,0.01,15.69c-19.81,0.06-39.61,0.03-59.41,0.01c-0.1-34.14,0.09-68.3-0.1-102.44
			C576.32,175.11,574.54,174.87,572.82,175.27z M583.3,175.29c-0.15,0.16-0.47,0.47-0.62,0.62c-0.23,17.24-0.03,34.51-0.09,51.76
			c-0.92,1.6,0.45,4.24,2.32,4.07c12.97-0.03,25.96,0.11,38.93-0.08c1.7-1.3-0.04-4.12,0.7-5.72c-12.03-0.1-24.07,0.04-36.1-0.05
			c-0.06-14.94-0.03-29.88-0.01-44.83c16.11-0.08,32.23-0.03,48.34-0.02c0.06,5.04,0.05,10.08,0,15.11
			c-10.68,0.09-21.35-0.05-32.02,0.05c0,1.44,0,4.32,0,5.76c12.42,0.1,24.85,0.03,37.27,0.02c0.05-8.92,0.03-17.85,0.01-26.77
			C622.45,175.23,602.87,175.12,583.3,175.29z M593.69,185.72c-0.05,11.63-0.04,23.27-0.01,34.91c12.22,0.13,24.45-0.05,36.67,0.05
			c0.1,5.23,0.03,10.46,0.01,15.7c-15.69,0.12-31.38-0.12-47.06,0.11c-0.16,0.15-0.48,0.45-0.65,0.61
			c-0.19,9.87-0.01,19.75-0.08,29.62c0.22,2.26-0.38,4.79,0.7,6.91c10.46-0.01,20.97,0.49,31.41-0.34
			c5.55,0.63,11.14,0.49,16.73,0.34c1.26-1.37,1.79-6.02-1.03-5.75c-13.98-0.03-27.95,0.05-41.93-0.02
			c-0.12-8.53-0.02-17.07-0.02-25.61c15.73-0.08,31.45,0.03,47.17-0.04c0.05-8.92,0.04-17.85,0.01-26.77c-12-0.14-24,0.11-36-0.1
			c-1.32-2.27-0.45-5.04-0.72-7.5c0.2-5.06-0.47-10.21,0.47-15.21c0.03-1.48,1.87-1.69,3.03-1.71c9.29,0.24,18.62-0.51,27.87,0.49
			c1.68-1.29-0.06-4.1,0.69-5.68C618.53,185.64,606.11,185.71,593.69,185.72z"/>
	</g>
	<path class="st1" d="M712.75,180.09c1.49-0.88,3.34,0.32,2.72,2.08c-3.66,6.37-8.15,12.28-11.62,18.75
		c5.25-1.91,10.58-3.68,15.74-5.83c1.49-0.57,1.2,1.31,1.59,2.21c-5.49,2.97-11.76,4.32-17.44,6.94c-1.46,0.51-2.83,1.66-4.46,1.22
		c-0.26-0.73-0.72-1.43-0.7-2.23c3.86-6.26,8.25-12.21,11.66-18.72c-5.37,1.6-10.6,3.67-15.8,5.78c-1.62,0.58-1.22-1.77-1.68-2.73
		C699.47,185.19,706.14,182.71,712.75,180.09z"/>
	<path class="st1" d="M499.94,182.3c2.7-1.1,1.59,2.35,0.93,3.88c-0.92,3.32-3.04,6.42-3.32,9.89c2.36,0.89,4.82,2.17,7.41,1.81
		c1.14-2.84,1.89-5.83,2.95-8.7c-0.74-3.01,1.6-2.22,3.01-2.31c0.1,4.51-3.28,8.31-3.46,12.69c2.3,0.71,4.44,1.96,6.81,2.42
		c1.53-4.48,3.28-8.88,4.92-13.32c0.76-0.02,1.44,0.41,2.15,0.65c-1.26,5.33-3.63,10.35-5.32,15.56c-1.61,0.3-3.1-0.57-4.59-1.02
		c-5.48-2.31-11.37-3.56-16.77-6.07c0.06-4.87,3.08-9.09,4.09-13.79C498.8,183.25,499.51,182.83,499.94,182.3z"/>
	<path class="st1" d="M699.87,253.97c6.89,2.35,13.81,5.12,20.69,7.67c1.07,0.36,1.1,2.23-0.01,2.55c-6.45,2.8-13.37,4.19-20.1,6.15
		c-0.17,0.23-0.52,0.69-0.71,0.92c5.06,1.68,9.93,3.86,14.97,5.58c1.21,0.34,0.65,1.78,0.76,2.71c-1.5,0.16-2.88-0.46-4.25-0.96
		c-5.95-2.23-12-4.21-17.82-6.77c-0.59-1.66,1.17-2.6,2.41-3.18c6.5-1.45,12.73-3.75,19.12-5.58c-0.63-1.03-1.85-1.29-2.9-1.68
		c-4.28-1.53-8.56-3.05-12.81-4.69C699.15,255.74,698.88,254.53,699.87,253.97z"/>
	<path class="st1" d="M513.98,254.7c0.37-0.05,1.11-0.15,1.49-0.2c2.1,4.33,3.28,9.06,5.21,13.48c0.44,1.17,0.13,3.18-1.53,2.79
		c-2.09-4.03-3.23-8.5-4.89-12.73c-2.7-0.43-4.9,1.31-7.4,1.85c0.67,4.3,3.54,8.22,4.06,12.65c-0.76,0.04-1.52,0.02-2.27-0.05
		c-1.07-1.79-1.38-3.94-2.34-5.8c-1.05-1.46-0.32-5.55-3-5.22c-2.17,0.55-4.44,1.14-6.33,2.39c1.54,4.06,3.17,8.09,4.51,12.22
		c0.6,1.43-1.98,2.17-2.38,0.7c-1.84-4.8-3.71-9.7-5.15-14.68C500.37,259.01,507.29,257.07,513.98,254.7z"/>
	<g>
		<path class="st1" d="M525.06,279.72c1.55-0.95,2.56,1.28,3.28,2.18c2.55,3.54,6.25,7.27,5.63,12.02c-0.92,3.6-3.47,6.68-6.78,8.35
			c-2.5,2.1-6,2.79-9.16,2.18c-4.23-2.68-7.19-6.96-10.07-10.95c0.03-0.24,0.11-0.72,0.15-0.96
			C513.81,288.33,519.49,284.09,525.06,279.72z M525.48,283.09c-4.74,3.52-10.26,6.55-14.03,11.02c2.03,2.74,4.14,5.71,7.17,7.43
			c5.33,1.17,10.43-2.91,12.5-7.59C531.62,289.64,528.36,285.47,525.48,283.09z"/>
	</g>
	<g>
		<path class="st1" d="M686.51,284.37c8.6-2.02,18.24,6.48,15.97,15.39c-1.1,2.61-3.17,4.57-5.25,6.41
			c-7.92,4.43-18.79-3.25-18.41-12.02C679.9,289.95,682.35,286.07,686.51,284.37z M687.12,287.31c-3.17,1.82-5.96,5.02-5.25,8.96
			c1.67,4.92,6.91,9.62,12.42,8.12c2.36-1.24,4.49-3.08,5.43-5.64C701.3,291.84,693.57,285.87,687.12,287.31z"/>
	</g>
	<path class="st1" d="M544.25,301.77c0.87-0.27,2.17-0.03,2.2,1.09c-2.56,5.55-8.33,9.47-9.32,15.74c0.52,3.7,4.03,6.4,7.58,6.99
		c4.04-0.39,6.29-4.34,8.53-7.19c1.71-2.42,3.56-4.75,4.98-7.36c1.07-0.09,1.56,1.13,2.27,1.73c-2.38,3.46-4.86,6.85-7.18,10.35
		c-2.38,2.23-4.81,5.83-8.6,4.8c-2.25,0.61-3.98-0.84-5.7-1.9c-1.91-2.1-5.11-4-4.23-7.44c-0.86-2.58,0.9-4.62,2.14-6.58
		C539.17,308.45,541.88,305.23,544.25,301.77z"/>
	<path class="st1" d="M666.06,304.68c2.58-0.66,3.29,2.93,4.97,4.16c3.26,4.5,7.08,8.58,10.09,13.26c-0.37,0.78-1.21,2.02-2.23,1.65
		c-3.87-4.19-6.79-9.12-10.54-13.4C667.59,308.72,663.85,306.57,666.06,304.68z"/>
	<path class="st1" d="M655.63,311.82c1.35-0.86,2.64,0.65,2.08,1.99c-2.3,1.03-4.56,2.13-6.83,3.21c-0.47,1.73,1.33,2.87,1.77,4.41
		c1.82,4.63,4.57,8.87,6.24,13.53c0.73,1.81-2.88,2.66-2.85,0.53c-2.45-5.67-5.22-11.21-7.75-16.81c-2.72-0.63-4.39,2.36-6.99,2.64
		c-1.37,0.79-2.22-1.67-1.17-2.31C645.23,316.49,650.46,314.29,655.63,311.82z"/>
	<path class="st1" d="M585.05,322.71l2.59,0.09c3.19,5.75,6.39,11.49,9.69,17.18c0.5,0.77,0.15,2.31,1.53,1.94
		c0.5-4.87,1.21-9.7,1.89-14.54c0.3-1.01,0.45-2.11,1.17-2.93c0.74-0.05,1.39,0.39,2.06,0.64c-0.63,3.98-0.83,8.03-1.8,11.95
		c-0.72,3.5-0.26,7.28-1.63,10.63c-1.04-0.03-2.7,0.61-2.83-1.11c-3.35-6.2-7.03-12.25-10.05-18.62c-1.28,0.61-1.63,1.77-1.08,3.47
		c-0.45,4.67-1.32,9.29-1.76,13.97l-2.84,0.02C582.3,337.77,583.85,330.24,585.05,322.71z"/>
	<g>
		<path class="st1" d="M622.92,322.72c3.33-1.78,3.42,2.12,4.91,3.65c3.69,5.78,7.68,11.36,11.27,17.19
			c-0.66,0.86-1.82,0.73-2.77,0.6c-1.34-1.49-2.17-3.35-3.21-5.04c-2.93-0.31-5.85,0.99-8.75,1.31c-6.55-2.08-2.24,8.76-7.97,7.29
			c1.89-8.15,3.92-16.22,6.01-24.31C622.53,323.25,622.79,322.9,622.92,322.72z M624.61,326.78c-1.49,3.49-1.87,7.41-2.98,11.06
			c3.16-0.14,6.24-0.89,9.36-1.28C629.36,333.13,626.84,329.69,624.61,326.78z"/>
	</g>
</g>
<g>
	<g>
		<path class="st2" d="M234.67,470.55l-4.3-40.21h7.36l2.46,33.56h0.79l3-23.36h6.63l-2.38,7.73h-1.13l-2.27,22.29H234.67z
			 M249.7,470.55l-2.27-22.29h-1.13l-2.32-7.73h6.63l2.95,23.36h0.79l2.46-33.56h7.36l-4.3,40.21H249.7z"/>
		<path class="st2" d="M283.92,471.12c-5.19,0-9.2-1.35-12.04-4.04c-2.83-2.69-4.25-6.56-4.25-11.6c0-4.91,1.2-8.72,3.61-11.44
			s5.8-4.08,10.18-4.08c4.29,0,7.6,1.26,9.94,3.77c2.34,2.51,3.51,6.16,3.51,10.96c0,1.36-0.06,2.65-0.17,3.88h-22.03v-5.32h14.67
			c0-2.02-0.51-3.57-1.54-4.64c-1.03-1.08-2.47-1.61-4.32-1.61c-2,0-3.55,0.71-4.66,2.14c-1.1,1.42-1.66,3.45-1.66,6.07
			c0,2.83,0.82,4.98,2.45,6.46c1.63,1.47,3.96,2.21,6.98,2.21c1.36,0,2.7-0.07,4.02-0.21c1.32-0.14,2.67-0.33,4.05-0.58l0.74,7.25
			c-1.93,0.34-3.68,0.56-5.27,0.65S285.14,471.12,283.92,471.12z"/>
		<path class="st2" d="M313.85,452.85l-5.15-4.87l3.4-3.54c0.66-0.68,1.13-1.33,1.42-1.95s0.42-1.26,0.42-1.9
			c0-1-0.28-1.73-0.85-2.2c-0.57-0.46-1.44-0.69-2.63-0.69h-1.84v-7.36h2.69c3.38,0,5.87,0.78,7.48,2.35
			c1.6,1.57,2.41,4.01,2.41,7.33c0,1.89-0.38,3.63-1.13,5.22c-0.76,1.6-1.89,3.18-3.4,4.74L313.85,452.85z"/>
		<path class="st2" d="M334.01,470.55v-6.57h21.01v6.57H334.01z M335.15,447.1v-6.57h11.33l0.57,6.57H335.15z M340.36,470.55v-30.02
			h6.51l1.13,8.61v21.41H340.36z M348,457.64l-1.76-10.34h2.58c0.3-4.89,2.86-7.33,7.67-7.33c2.85,0,5.04,1.05,6.56,3.14
			c1.52,2.1,2.28,5.12,2.28,9.06h-7.62c0-1.77-0.33-3.05-0.98-3.82s-1.7-1.16-3.16-1.16c-1.87,0-3.27,0.91-4.19,2.72
			C348.47,451.72,348,454.3,348,457.64z"/>
		<path class="st2" d="M385.87,471.12c-5.19,0-9.2-1.35-12.04-4.04c-2.83-2.69-4.25-6.56-4.25-11.6c0-4.91,1.2-8.72,3.61-11.44
			s5.8-4.08,10.18-4.08c4.29,0,7.6,1.26,9.94,3.77c2.34,2.51,3.51,6.16,3.51,10.96c0,1.36-0.06,2.65-0.17,3.88h-22.03v-5.32h14.67
			c0-2.02-0.51-3.57-1.54-4.64c-1.03-1.08-2.47-1.61-4.32-1.61c-2,0-3.55,0.71-4.66,2.14c-1.1,1.42-1.66,3.45-1.66,6.07
			c0,2.83,0.82,4.98,2.45,6.46c1.63,1.47,3.96,2.21,6.98,2.21c1.36,0,2.7-0.07,4.02-0.21c1.32-0.14,2.67-0.33,4.05-0.58l0.74,7.25
			c-1.93,0.34-3.68,0.56-5.27,0.65S387.1,471.12,385.87,471.12z"/>
		<path class="st2" d="M438.23,470.55v-40.21h7.48v40.21H438.23z M438.23,470.55v-6.88h27.58v6.88H438.23z"/>
		<path class="st2" d="M480.51,471.12c-3.19,0-5.67-0.78-7.45-2.35c-1.77-1.57-2.66-3.79-2.66-6.68c0-3.36,1.16-5.94,3.48-7.73
			s5.62-2.69,9.88-2.69c1.64,0,3.06,0.08,4.26,0.25c1.2,0.17,2.41,0.43,3.64,0.79l-1.25,5.98c-1.21-0.28-2.29-0.45-3.26-0.5
			c-0.96-0.05-1.97-0.07-3.03-0.07c-3.96,0-5.95,1.13-5.95,3.4c0,1.02,0.36,1.8,1.08,2.34c0.72,0.54,1.77,0.81,3.14,0.81
			c1.66,0,3.05-0.31,4.16-0.93c1.11-0.62,1.95-1.42,2.51-2.38c0.56-0.96,0.84-1.95,0.84-2.97v-1.87l1.08,7.7h-2.41l0.99-0.91
			c-0.06,1.74-0.45,3.19-1.19,4.35c-0.74,1.16-1.77,2.03-3.1,2.61C483.96,470.83,482.36,471.12,480.51,471.12z M490.68,470.84
			l-0.65-8.89l-0.11-3.91v-5.86c0-1.6-0.68-2.78-2.05-3.53c-1.37-0.75-3.4-1.16-6.1-1.23l-7.67-0.2l0.57-6.97l6.54,0.08
			c5.44,0.08,9.48,1.15,12.12,3.21c2.64,2.07,3.96,5.08,3.96,9.05v11.1l4.16,0.62v6.23L490.68,470.84z"/>
		<path class="st2" d="M514.78,471.12c-2.85,0-5.06-0.94-6.63-2.82c-1.57-1.88-2.35-4.53-2.35-7.94v-19.82h7.67v17.93
			c0,1.72,0.39,3.04,1.18,3.98c0.78,0.93,1.86,1.4,3.24,1.4c1.79,0,3.15-0.69,4.06-2.08c0.92-1.39,1.37-3.71,1.37-6.98l1.53,10
			h-2.32c-0.47,2.04-1.39,3.61-2.75,4.7S516.76,471.12,514.78,471.12z M523.33,462.06v-21.52h7.67v19.82L523.33,462.06z
			 M523.84,470.84l-0.51-7.19v-5.27h7.67v5.32l4.13,0.62v6.23L523.84,470.84z"/>
		<path class="st2" d="M540.41,470.55v-30.02h6.85l0.82,6.34v23.68H540.41z M558.17,470.55v-17.64c0-1.81-0.37-3.21-1.12-4.19
			c-0.75-0.98-1.81-1.47-3.19-1.47c-3.85,0-5.78,2.78-5.78,8.33l-1.76-9.6h2.49c0.28-2.02,0.97-3.53,2.07-4.52
			c1.09-0.99,2.76-1.49,4.98-1.49c3.17,0,5.63,0.96,7.36,2.89c1.74,1.93,2.61,4.64,2.61,8.16v19.54H558.17z"/>
		<path class="st2" d="M590.62,471.12c-5.46,0-9.68-1.35-12.66-4.04c-2.98-2.69-4.47-6.56-4.47-11.6c0-4.91,1.36-8.72,4.08-11.44
			s6.6-4.08,11.64-4.08c3.1,0,5.75,0.6,7.97,1.81c2.22,1.21,3.79,2.92,4.72,5.13l-5.55,4.42c-0.83-1.3-1.88-2.31-3.16-3.02
			c-1.27-0.71-2.68-1.06-4.21-1.06c-2.32,0-4.13,0.69-5.42,2.07c-1.29,1.38-1.94,3.34-1.94,5.89c0,2.81,0.84,4.96,2.52,6.43
			c1.68,1.47,4.07,2.21,7.17,2.21c1.36,0,2.71-0.07,4.06-0.2c1.35-0.13,2.67-0.31,3.95-0.54l0.79,7.17
			c-1.53,0.34-3.11,0.57-4.73,0.68C593.76,471.06,592.17,471.12,590.62,471.12z"/>
		<path class="st2" d="M608.38,470.55v-42.48h7.67v42.48H608.38z M626.14,470.55v-18.12c0-1.68-0.37-2.97-1.12-3.88
			c-0.75-0.91-1.81-1.36-3.19-1.36c-3.85,0-5.78,2.63-5.78,7.9l-1.76-9.12h2.49c0.28-2.02,0.97-3.53,2.07-4.52
			c1.09-0.99,2.76-1.49,4.98-1.49c3.17,0,5.63,0.96,7.36,2.89c1.74,1.93,2.61,4.64,2.61,8.16v19.54H626.14z"/>
		<path class="st2" d="M642.14,470.55v-7.08h11.67v7.08H642.14z M643.84,447.61v-7.08h17.05v7.08H643.84z M656.72,436.48
			c-1.45,0-2.63-0.45-3.54-1.36s-1.36-2.09-1.36-3.54s0.45-2.63,1.36-3.54s2.09-1.36,3.54-1.36s2.63,0.45,3.54,1.36
			s1.36,2.09,1.36,3.54s-0.45,2.63-1.36,3.54S658.18,436.48,656.72,436.48z M653.24,470.55v-28.32h7.65v28.32H653.24z
			 M660.32,470.55v-7.08h9.46v7.08H660.32z"/>
		<path class="st2" d="M676.35,470.55v-30.02h6.85l0.82,6.34v23.68H676.35z M694.11,470.55v-17.64c0-1.81-0.37-3.21-1.12-4.19
			c-0.75-0.98-1.81-1.47-3.19-1.47c-3.85,0-5.78,2.78-5.78,8.33l-1.76-9.6h2.49c0.28-2.02,0.97-3.53,2.07-4.52
			c1.09-0.99,2.76-1.49,4.98-1.49c3.17,0,5.63,0.96,7.36,2.89s2.61,4.64,2.61,8.16v19.54H694.11z"/>
		<path class="st2" d="M720.08,471.12c-3.72,0-6.61-1.34-8.68-4.02c-2.07-2.68-3.1-6.52-3.1-11.53c0-4.97,1.03-8.81,3.1-11.53
			c2.07-2.72,4.98-4.08,8.74-4.08c2.28,0,4.02,0.5,5.2,1.49c1.18,0.99,1.95,2.5,2.31,4.52h2.21l-1.76,9.6
			c0-2.91-0.49-5.03-1.46-6.37c-0.97-1.34-2.44-2.01-4.4-2.01c-1.87,0-3.31,0.73-4.33,2.19c-1.02,1.46-1.53,3.53-1.53,6.19
			c0,2.76,0.5,4.83,1.49,6.23c0.99,1.4,2.45,2.1,4.38,2.1c2.19,0,3.71-0.66,4.57-1.98c0.86-1.32,1.29-3.44,1.29-6.34l2.04,9.54
			h-2.66c-0.3,2-1.09,3.5-2.35,4.5S722.17,471.12,720.08,471.12z M711.21,484.09l-0.28-6.68l9.63-0.28c2.64-0.08,4.56-0.81,5.75-2.2
			c1.19-1.39,1.78-3.43,1.78-6.13v-21.92l0.57-6.34h7.11v27.36c0,5.34-1.26,9.28-3.77,11.82c-2.51,2.54-6.51,3.9-12.01,4.09
			L711.21,484.09z"/>
		<path class="st2" d="M789.63,471.12c-2.28,0-4.5-0.19-6.66-0.58c-2.15-0.39-4.08-0.93-5.78-1.63l1.02-7.65
			c2.08,0.87,4.14,1.54,6.19,2.01c2.05,0.47,3.94,0.71,5.68,0.71c2.02,0,3.57-0.36,4.64-1.08s1.61-1.75,1.61-3.09
			c0-1.76-1.1-3.15-3.31-4.19l-5.78-2.8c-2.85-1.4-5.06-3.12-6.63-5.18s-2.35-4.33-2.35-6.83c0-3.51,1.16-6.23,3.48-8.16
			s5.61-2.89,9.86-2.89c2.47,0,4.82,0.43,7.04,1.3c2.22,0.87,4.19,2.12,5.9,3.77l-5.15,5.92c-1.3-1.25-2.62-2.2-3.94-2.88
			c-1.32-0.67-2.6-1-3.82-1c-1.66,0-2.96,0.35-3.88,1.06c-0.92,0.71-1.39,1.73-1.39,3.07c0,0.89,0.33,1.73,0.98,2.52
			c0.65,0.79,1.58,1.51,2.79,2.15l5.44,2.8c2.83,1.47,5.02,3.19,6.56,5.15c1.54,1.96,2.31,4.07,2.31,6.32
			c0,3.57-1.28,6.32-3.85,8.26C798.02,470.15,794.37,471.12,789.63,471.12z"/>
		<path class="st2" d="M825,471.12c-4.32,0-7.67-1.36-10.05-4.08s-3.57-6.55-3.57-11.5c0-4.97,1.19-8.8,3.57-11.51
			c2.38-2.71,5.73-4.06,10.05-4.06s7.67,1.35,10.05,4.06c2.38,2.71,3.57,6.55,3.57,11.51c0,4.95-1.19,8.78-3.57,11.5
			S829.33,471.12,825,471.12z M825.03,463.84c1.74,0,3.08-0.72,4.04-2.17c0.95-1.44,1.43-3.49,1.43-6.13c0-2.66-0.48-4.71-1.43-6.15
			c-0.95-1.43-2.31-2.15-4.06-2.15c-1.74,0-3.09,0.72-4.05,2.15s-1.44,3.48-1.44,6.15c0,2.64,0.48,4.69,1.44,6.13
			C821.92,463.12,823.28,463.84,825.03,463.84z"/>
		<path class="st2" d="M858.99,471.12c-4.32,0-7.67-1.36-10.05-4.08s-3.57-6.55-3.57-11.5c0-4.97,1.19-8.8,3.57-11.51
			c2.38-2.71,5.73-4.06,10.05-4.06s7.67,1.35,10.05,4.06c2.38,2.71,3.57,6.55,3.57,11.51c0,4.95-1.19,8.78-3.57,11.5
			S863.31,471.12,858.99,471.12z M859.02,463.84c1.74,0,3.08-0.72,4.04-2.17c0.95-1.44,1.43-3.49,1.43-6.13
			c0-2.66-0.48-4.71-1.43-6.15c-0.95-1.43-2.31-2.15-4.06-2.15c-1.74,0-3.09,0.72-4.05,2.15s-1.44,3.48-1.44,6.15
			c0,2.64,0.48,4.69,1.44,6.13C855.9,463.12,857.26,463.84,859.02,463.84z"/>
		<path class="st2" d="M880.26,470.55v-30.02h6.85l0.82,6.34v23.68H880.26z M898.01,470.55v-17.64c0-1.81-0.37-3.21-1.12-4.19
			c-0.75-0.98-1.81-1.47-3.19-1.47c-3.85,0-5.78,2.78-5.78,8.33l-1.76-9.6h2.49c0.28-2.02,0.97-3.53,2.07-4.52
			c1.09-0.99,2.76-1.49,4.98-1.49c3.17,0,5.63,0.96,7.36,2.89s2.61,4.64,2.61,8.16v19.54H898.01z"/>
		<path class="st2" d="M960.94,471.12c-1.43,0-2.65-0.5-3.65-1.52c-1-1.01-1.5-2.22-1.5-3.64c0-1.43,0.5-2.65,1.5-3.65
			s2.22-1.5,3.65-1.5s2.65,0.5,3.65,1.5s1.5,2.22,1.5,3.65c0,1.42-0.5,2.63-1.5,3.64C963.59,470.61,962.38,471.12,960.94,471.12z
			 M957.23,454.81l-0.65-24.75h8.72l-0.76,24.75H957.23z"/>
		<path class="st2" d="M994.92,471.12c-1.43,0-2.65-0.5-3.65-1.52c-1-1.01-1.5-2.22-1.5-3.64c0-1.43,0.5-2.65,1.5-3.65
			s2.22-1.5,3.65-1.5s2.65,0.5,3.65,1.5s1.5,2.22,1.5,3.65c0,1.42-0.5,2.63-1.5,3.64C997.58,470.61,996.36,471.12,994.92,471.12z
			 M991.21,454.81l-0.65-24.75h8.72l-0.76,24.75H991.21z"/>
		<path class="st2" d="M1028.91,471.12c-1.43,0-2.65-0.5-3.65-1.52c-1-1.01-1.5-2.22-1.5-3.64c0-1.43,0.5-2.65,1.5-3.65
			s2.22-1.5,3.65-1.5s2.65,0.5,3.65,1.5s1.5,2.22,1.5,3.65c0,1.42-0.5,2.63-1.5,3.64C1031.56,470.61,1030.34,471.12,1028.91,471.12z
			 M1025.2,454.81l-0.65-24.75h8.72l-0.76,24.75H1025.2z"/>
	</g>
</g>
</svg>
